<svg xmlns="http://www.w3.org/2000/svg" width="58" height="34" fill="none"><path fill="#fff" d="M24.285 31.316C19.445 36.145 0 30.759 0 30.759s18.016-19.57 23.97-19.57c4.404 0 15.03 16.64 20.586 16.64C50.113 27.83 58 19.603 58 19.603l-2.03 3.093s-7.883 8.226-13.444 8.226S26.344 16.313 21.94 16.313c-5.96 0-16.927 11.783-16.927 11.783s17.218 4.385 22.057-.445"/><path fill="#fff" d="M22.578 27.361a3.38 3.38 0 0 0 3.386-3.378 3.38 3.38 0 0 0-3.386-3.379 3.38 3.38 0 0 0-3.385 3.379 3.38 3.38 0 0 0 3.385 3.378m-7.774-15.049s2.124-1.006 1.453-2.564c-.67-1.559-3.24-4.91-3.69-5.466-.45-.557-.961 3.154-.961 3.154l3.198 4.88zm17.242 0s-2.125-1.006-1.454-2.564c.67-1.559 3.24-4.91 3.69-5.466.45-.557.962 3.154.962 3.154l-3.198 4.88zM25.087 8.03s-2.326.351-2.64-1.32c-.314-1.67-.056-5.877 0-6.593s2.56 2.083 2.56 2.083z"/></svg>