<svg width="302" height="36" viewBox="0 0 302 36" fill="none" xmlns="http://www.w3.org/2000/svg">
<g clip-path="url(#clip0_1404_1052)">
<path d="M74.1855 4.9951C73.9146 4.4013 74.0241 4.07845 74.7275 4.0208C79.207 3.53653 83.2598 1.26507 86.938 1.10365C89.6937 0.994114 92.0689 1.85888 93.3661 5.58891C94.5018 8.8289 93.5794 11.9651 91.7461 14.8304C89.0422 19.0447 83.2079 23.0976 76.1284 24.4466C74.8831 24.6657 73.6955 24.4466 72.7789 23.9047C71.2684 26.8795 69.6426 30.4423 67.7517 34.9276C67.5384 35.4695 67.2674 35.4695 66.8869 35.089C66.1317 34.2761 65.5898 32.6561 66.4026 29.739C67.8093 24.8213 72.8884 14.6632 77.587 7.26079C75.7479 7.04172 74.7217 6.12506 74.1798 4.98934L74.1855 4.9951ZM91.0485 6.07318C89.9128 3.09838 84.5109 5.91176 80.9423 6.93795C80.9423 8.39652 80.4003 10.2875 78.8899 12.8818C77.4832 15.3665 75.9727 17.8513 74.3527 20.878C86.4595 18.6065 92.5071 9.85509 91.0485 6.07318Z" fill="white"/>
<path d="M89.8564 25.6922C91.3668 19.5869 97.4779 9.42881 102.395 1.96876C102.828 1.32307 103.312 1.42684 103.693 2.02064C104.557 3.36968 104.771 5.47971 102.666 9.53259C100.02 14.6635 94.5607 22.7174 93.2117 28.4479C92.566 31.2036 92.7274 33.256 94.2897 33.8498C97.5874 35.147 101.911 30.3908 105.693 23.0979C108.668 17.3155 114.554 6.61544 117.529 1.91687C117.961 1.21353 118.446 1.37495 118.826 1.96876C119.472 3.10449 119.529 5.53736 118.123 8.66782C116.232 12.8302 109.533 25.2598 105.912 30.2812C102.073 35.5794 97.2645 36.9284 93.5345 35.4122C90.8883 34.3341 88.4036 31.6303 89.8621 25.6864L89.8564 25.6922Z" fill="white"/>
<path d="M114.824 34.9334C114.605 35.4753 114.34 35.5272 113.959 35.1524C113.204 34.3396 112.662 32.7196 113.475 29.8024C114.824 24.8848 119.903 14.6171 124.659 7.16282C122.82 7.00139 121.852 6.18851 121.2 5.0009C120.929 4.45898 121.091 4.18802 121.794 4.08425C126.331 3.54233 130.384 1.32852 134.004 1.1671C136.76 1.05756 139.135 1.87044 140.433 5.54282C141.568 8.78281 140.813 12.0805 138.755 14.8362C135.838 18.7276 129.998 22.1291 124.002 23.5357C126.054 26.0782 128.003 28.6667 129.133 30.9381C129.888 32.3967 130.107 34.2358 129.404 35.3139C129.133 35.7462 128.862 35.9077 128.539 35.4234C124.971 30.5576 122.163 27.0467 119.621 24.2391C118.162 27.1043 116.594 30.5058 114.812 34.9391L114.824 34.9334ZM125.904 12.9395C124.446 15.5338 123.097 17.8052 121.633 20.4514C133.578 17.8052 139.683 9.91278 138.115 6.07898C136.927 3.05229 131.52 5.8599 127.957 6.83421C127.957 8.34466 127.363 10.2414 125.904 12.9395Z" fill="white"/>
<path d="M145.84 3.64037C145.731 3.1561 145.892 2.93703 146.434 2.99468C150.919 3.26564 156.863 1.69753 159.89 1.64564C162.161 1.59376 163.349 2.51041 163.995 4.29183C164.156 4.72421 164.046 5.10471 163.401 4.99517C159.509 4.94329 155.727 5.91182 152.43 6.45375C150.268 9.69374 147.622 14.3981 144.97 19.2062C146.428 18.9352 147.835 18.8257 148.809 18.7738C151.513 18.6643 152.701 19.529 153.243 21.2067C153.404 21.6909 153.404 22.0195 152.701 22.0195C149.784 22.0195 145.731 22.7748 142.704 23.53C141.136 26.5567 139.677 29.5257 138.542 32.0681C141.136 31.2553 144.705 30.5 146.918 30.3905C149.564 30.281 150.919 31.1457 151.513 32.7657C151.675 33.25 151.623 33.5786 150.971 33.5786C147.944 33.5267 142.053 34.9276 139.026 35.7405C138 36.0115 137.406 36.0115 136.754 35.1986C136.322 34.7143 135.999 33.9014 135.619 33.1981C135.134 32.2815 135.134 31.5781 135.671 30.1195C138.155 23.4724 143.563 13.4238 148.1 6.39609C146.751 5.85417 146.157 4.7761 145.829 3.64037H145.84Z" fill="white"/>
<path d="M158.271 28.6608C160.433 30.3903 164.106 33.1979 167.622 33.1979C169.133 33.1979 170.269 32.8174 170.972 32.2236C171.889 31.1974 171.618 30.0617 170.862 29.416C167.997 26.9831 159.459 23.6336 159.459 18.0703C159.459 10.6679 167.836 4.34354 172.644 2.29116C175.238 1.21308 177.833 0.7807 179.614 2.4007C180.963 3.64596 181.937 5.42738 182.318 6.93784C182.86 9.09976 181.563 11.2098 180.75 12.3398C179.343 14.2307 177.775 16.9864 177.02 18.3355C176.749 18.8197 176.426 19.0907 175.832 18.4969C174.806 17.4707 174.154 15.7931 175.29 13.2564C176.426 10.6621 180.479 6.17685 179.182 4.82781C177.342 2.93685 164.048 11.204 163.783 17.9607C163.621 21.4717 170.54 24.337 173.566 26.4989C175.619 27.9574 175.348 30.4422 172.973 33.1979C169.733 36.928 160.33 37.9542 152.708 28.7646C152.114 28.0612 152.328 27.6865 152.818 27.5193C154.599 26.9774 156.819 27.4674 158.277 28.655L158.271 28.6608Z" fill="white"/>
<path d="M179.018 25.6922C180.529 19.5869 186.64 9.42881 191.558 1.96876C191.99 1.32307 192.474 1.42684 192.855 2.02064C193.72 3.36968 193.933 5.47971 191.829 9.53259C189.182 14.6635 183.723 22.7174 182.374 28.4479C181.728 31.2036 181.89 33.256 183.452 33.8498C186.749 35.147 191.073 30.3908 194.855 23.0979C197.83 17.3155 203.716 6.61544 206.691 1.91687C207.123 1.21353 207.608 1.37495 207.988 1.96876C208.634 3.10449 208.692 5.53736 207.285 8.66782C205.394 12.8302 198.695 25.2598 195.074 30.2812C191.235 35.5794 186.427 36.9284 182.697 35.4122C180.05 34.3341 177.566 31.6303 179.024 25.6864L179.018 25.6922Z" fill="white"/>
<path d="M201.878 35.4175C201.665 35.9595 201.336 35.9595 200.962 35.5271C200.206 34.7142 199.613 32.8809 200.852 29.6351C202.853 24.5042 211.604 10.0741 217.444 2.12977C217.928 1.42643 218.47 1.21312 219.174 1.80693C221.284 3.646 221.878 5.53696 220.471 9.80314C218.741 14.9917 216.798 21.3161 214.74 28.8799C220.632 19.2637 228.519 11.2098 234.463 1.96835C234.947 1.21312 235.379 1.15547 236.031 1.80693C238.193 4.02073 237.651 6.99553 236.192 9.69937C232.41 16.727 227.003 27.6404 224.305 35.4233C224.091 35.9652 223.872 35.9652 223.44 35.5847C222.575 34.8814 221.929 33.2614 222.846 29.6928C223.659 26.5047 227.118 18.9408 230.629 12.1841C224.466 19.6442 218.199 27.9114 214.308 35.1523C214.037 35.6943 213.766 35.8557 213.334 35.5328C211.552 34.2357 210.739 32.3447 211.281 28.9952C211.766 25.9166 213.553 18.4566 215.928 11.2675C211.12 18.5085 205.066 28.1823 201.878 35.4233V35.4175Z" fill="white"/>
<path d="M231.765 35.4175C231.552 35.9595 231.223 35.9595 230.848 35.5271C230.093 34.7142 229.499 32.8809 230.739 29.6351C232.739 24.5042 241.491 10.0741 247.331 2.12977C247.815 1.42643 248.357 1.21312 249.06 1.80693C251.17 3.646 251.764 5.53696 250.358 9.80314C248.628 14.9917 246.685 21.3161 244.627 28.8799C250.519 19.2637 258.406 11.2098 264.35 1.96835C264.834 1.21312 265.266 1.15547 265.918 1.80693C268.08 4.02073 267.538 6.99553 266.079 9.69937C262.297 16.727 256.889 27.6404 254.191 35.4233C253.972 35.9652 253.759 35.9652 253.327 35.5847C252.462 34.8814 251.816 33.2614 252.733 29.6928C253.546 26.5047 257.005 18.9408 260.516 12.1841C254.353 19.6442 248.086 27.9114 244.195 35.1523C243.924 35.6943 243.653 35.8557 243.22 35.5328C241.439 34.2357 240.626 32.3447 241.168 28.9952C241.652 25.9166 243.439 18.4566 245.815 11.2675C241.007 18.5085 234.953 28.1823 231.765 35.4233V35.4175Z" fill="white"/>
<path d="M277.534 1.53608C278.289 3.10419 278.237 5.69849 275.914 9.80325C272.564 15.6952 266.62 26.1243 262.671 34.9853C262.452 35.5272 262.239 35.5791 261.806 35.0948C261.051 34.2819 260.4 32.391 261.587 29.0991C264.233 21.7486 271.855 7.80852 276.231 1.48419C276.715 0.780847 277.205 0.890384 277.528 1.53608H277.534Z" fill="white"/>
<path d="M284.775 6.7767C281.535 6.88624 279.211 5.69862 278.612 3.69813C278.45 3.21386 278.664 2.9429 279.205 2.99479C284.014 3.37528 292.984 1.37479 296.068 1.48433C298.34 1.53621 300.392 2.13002 301.205 4.24005C301.367 4.67243 301.257 5.10482 300.559 5.05293C297.913 4.78197 294.506 5.32389 291.376 5.86581C291.427 7.16296 291.053 8.94438 289.594 11.5963C286.354 17.4883 281.759 25.0521 277.545 34.9393C277.326 35.4812 277.061 35.4812 276.68 35.1007C275.925 34.3974 275.274 32.7774 275.977 30.1831C277.222 25.7497 283.057 14.0234 288.084 6.40773C286.838 6.62681 285.76 6.73058 284.786 6.78823L284.775 6.7767Z" fill="white"/>
</g>
<path d="M24.2851 32.3023C19.4459 37.1316 0 31.7455 0 31.7455C0 31.7455 18.0157 12.1758 23.9709 12.1758C28.374 12.1758 38.9996 28.8161 44.5562 28.8161C50.1129 28.8161 58 20.5895 58 20.5895L55.9696 23.6827C55.9696 23.6827 48.0872 31.9093 42.5258 31.9093C36.9645 31.9093 26.3436 17.2998 21.9405 17.2998C15.9806 17.2998 5.01269 29.0828 5.01269 29.0828C5.01269 29.0828 22.2312 33.4675 27.0704 28.6383" fill="white"/>
<path d="M22.577 28.348C24.4468 28.348 25.9625 26.8354 25.9625 24.9694C25.9625 23.1035 24.4468 21.5908 22.577 21.5908C20.7072 21.5908 19.1914 23.1035 19.1914 24.9694C19.1914 26.8354 20.7072 28.348 22.577 28.348Z" fill="white"/>
<path d="M14.8036 13.2989C14.8036 13.2989 16.9278 12.2928 16.2572 10.7345C15.5867 9.17624 13.017 5.82572 12.5669 5.26886C12.1167 4.712 11.6056 8.42284 11.6056 8.42284L14.8036 13.3036V13.2989Z" fill="white"/>
<path d="M32.0456 13.2989C32.0456 13.2989 29.9214 12.2928 30.5919 10.7345C31.2625 9.17624 33.8321 5.82572 34.2823 5.26886C34.7325 4.712 35.2436 8.42284 35.2436 8.42284L32.0456 13.3036V13.2989Z" fill="white"/>
<path d="M25.0879 9.01706C25.0879 9.01706 22.7621 9.36802 22.4479 7.69744C22.1337 6.02686 22.3917 1.81998 22.4479 1.10402C22.5042 0.388051 25.0082 3.1864 25.0082 3.1864L25.0879 9.01706Z" fill="white"/>
<defs>
<clipPath id="clip0_1404_1052">
<rect width="235.268" height="35" fill="white" transform="translate(66 1)"/>
</clipPath>
</defs>
</svg>
