<svg xmlns="http://www.w3.org/2000/svg" width="1297" height="797" fill="none">
  <path fill="#F7EEE6" stroke="#E9CCA5" stroke-miterlimit="10" stroke-width="2"
    d="M36.501 213.583c2.282-1.928 12.454 0 14.56.176s5.965 1.226 8.242-.176 9.65-1.05 12.278-1.577c2.63-.527 9.122-14.021 11.227-18.404 2.106-4.384-.175-12.093 1.227-15.075s1.578.878 9.473-3.33c7.895-4.207 12.278-12.444 16.665-14.196 4.387-1.753 9.122-1.226 9.825-3.857s.352-17.526 4.735-19.279c4.383-1.752 3.508-2.104 5.262-7.537 0 0 1.05-9.817 3.683-14.021s4.911-5.082 5.087-10.34c.175-5.258-3.508-5.961 2.633-10.165 6.141-4.208 14.735-9.989 15.262-7.889s-.879 5.434 3.86 6.137c4.734.702 6.317 1.05 8.77 2.63 2.453 1.581 7.719.879 12.278 1.402s3.332 2.104 8.77 2.104 2.805-7.538 5.789-7.362c2.985.176 12.454 7.537 16.138 6.136s9.473-1.753 12.278-.878 4.91 9.641 8.594 10.164 7.895-3.856 13.681-3.856h9.996c1.403 0 2.106-3.857 3.157-4.556s5.262-1.752 7.191-2.978c1.93-1.225 1.051-4.032 4.559-7.186s18.068-9.29 20.173-12.444c2.106-3.154.703-8.588 3.86-10.867s17.017 2.455 20.349 4.032 8.07-2.803 12.629-3.154 6.665 1.05 7.544 4.032-1.754 10.692 1.051 12.62 4.387 2.28 7.543 5.785 5.789 2.978 10.524 2.63c4.735-.347 2.633.352 10.348.528 7.716.175 8.071-.879 11.927 2.28 3.859 3.153 5.437 3.153 7.719 2.103s7.192 1.226 15.262-.702c8.071-1.929 10.173-4.731 12.278-4.556 2.106.176.704 5.083 5.79 5.258 5.086.176 26.662-8.412 27.892-11.218 1.227-2.803-.703-4.907 3.508-7.01 4.211-2.105 27.716-8.065 31.752-11.219s4.035-3.505 12.102-4.555c8.071-1.05 6.489-1.226 9.122-2.456s11.926 2.456 15.961 5.961 5.263 4.906 8.419 5.258c3.156.351 4.211-4.208 7.016-7.713s5.614-4.384 12.102-4.556c6.489-.175 10.348-2.28 15.439-5.784 5.09-3.506 7.895-9.115 9.649-14.373s-1.227-5.433 3.683-9.641 14.208-5.96 15.786-7.538c1.579-1.577 5.087-.878 9.474 0 4.387.879 18.067-9.641 20.173-8.064s5.262 4.208 9.121 2.978 3.684-2.28 7.895-2.28 7.016-.35 7.895-1.225c.879-.874-1.226-2.803 1.403-3.68 2.633-.88 9.297-.703 12.278-3.155s7.367-1.401 9.824 1.753c2.458 3.154 5.79 3.68 9.649 1.577 3.86-2.104 7.544-2.979 12.454-1.928 4.911 1.05 4.036 3.33 7.719.878s5.79-5.61 10.524-5.434c4.735.176 11.403.352 16.49-1.401s11.227.703 17.364.703 8.594-.176 10.172 2.455c1.578 2.63 1.227 6.312 3.332 6.312 2.106 0 4.911 1.05 6.665 1.4 1.754.352 7.192-3.329 9.122-2.279s-.704 3.33 5.437 4.384c6.141 1.05 7.192.878 9.997 2.104s7.543 2.802 10.876 2.28c3.332-.524 6.141 1.225 9.473 3.856s11.754 7.362 14.032 7.713c2.277.351 4.91 4.032-3.332 5.258s-9.473 1.226-9.825 5.433c-.352 4.208 1.051 4.907 3.332 5.258 2.281.352 5.086 1.929 6.84 3.681s7.192 2.631 10.7 1.753 6.141-1.753 6.84-.352c.7 1.402-3.332 14.9-3.156 17.351s1.051 4.384.527 6.312-4.035 2.978-2.457 5.258 2.106 3.505 1.051 6.483c-1.055 2.979-.879 4.033-4.91 4.731-4.032.699-8.946-.527-9.298 4.907-.351 5.433-2.105 5.433-3.156 7.186s-.352 5.434 1.226 8.064c1.579 2.631 3.86 3.506 5.087 4.907s1.402 4.032 1.226 5.258-1.402 10.34-.176 12.268c1.227 1.929 11.579-1.225 14.208.176s4.387 3.681 4.559 6.484-1.402 4.73-1.578 6.659-4.735 1.577-5.086 2.978c-.352 1.401-.352 2.104.527 4.384.879 2.279 1.578 1.05 1.93 3.68s2.457 2.979 2.281 7.011-1.051 8.064-.879 10.34 3.86 4.731 4.036 6.835-1.579 4.032-1.579 7.01c0 2.979 0 5.961-2.804 8.764-2.805 2.802-9.298 4.555-9.298 8.587s.176 6.835 2.282 11.57c2.105 4.731 6.316 4.906 8.594 5.609s2.633 1.577 4.211 2.631 3.684-.527 4.035.878c.352 1.405-2.281 4.555-2.457 6.484-.176 1.928 6.141.878 6.84 3.505.7 2.627-1.226 9.29 1.93 9.466 3.157.175 8.77 1.577 11.227 4.207s4.735 4.556 4.387 7.187c-.347 2.631-.175 4.032 0 5.258.176 1.225 5.966 5.609 6.665 7.537s.176 2.803 2.805 3.857c2.629 1.053 2.804.527 8.242 1.752s16.314 7.889 19.997 9.817c3.684 1.929 10.173-1.225 12.63-3.856s5.79-2.803 13.681-2.979c7.891-.175 6.488-6.136 8.418-7.713s13.333-.878 12.981.176c-.351 1.054-1.402 3.681-.176 5.785 1.227 2.104 5.966 11.569 10.876 14.372s7.192 4.907 10.876 7.362 14.383 6.312 18.067 12.268 12.275-4.383 15.435-3.681c3.16.703 7.37 1.402 6.67 3.33-.71 1.928-3.33 10.867 3.86 9.466s14.56-1.929 19.82.351 5.61 3.33 8.24 1.577 4.04-2.28 6.67-1.577c2.62.703 3.68 3.681 8.24 2.455s9.47-4.032 10.17-2.104c0 0 .53 3.33 1.93 7.713 1.4 4.384 10.88-3.329 12.45-2.279 1.58 1.05 7.9 7.186 9.83 9.29s7.19-1.401 8.42 0c1.22 1.401 1.22 9.466 4.91 7.537 3.68-1.928 11.05-7.186 15.09-6.834 4.03.351 5.43 5.082 9.29 7.01s18.95 1.577 21.4 1.577c2.46 0 3.69-2.803 4.74-3.681s9.65 1.226 12.1-1.05-.18-5.258 1.93-6.312c2.1-1.054 7.72 0 10.35-2.631s4.56-6.136 7.72-2.103 5.43 6.311 6.66 6.136c1.23-.176 2.63 1.225 4.39 5.433 1.75 4.208 6.84 1.226 7.89 4.032 1.06 2.807.88 7.714 1.93 9.642s6.14 3.505 7.72 5.785c1.58 2.279 8.77 3.856 14.03 3.329 5.27-.527 5.97 2.104 6.67 4.384.7 2.279 2.28 2.631 5.79 2.631s4.56 3.681 3.68 6.835-5.79 8.236-4.56 11.569 4.39 9.466 7.02 14.021 4.73 6.136 6.84 4.032c2.1-2.103 4.73-2.279 7.89-1.577 3.16.703 3.16-.175 5.79 2.631 2.64 2.807.88 5.258 4.56 4.208s2.46-2.978 7.72-2.631 16.31 0 16.67 2.456c.35 2.455-1.41 7.186 1.22 10.515 2.64 3.33 4.39 4.907 4.74.176.34-4.731.52-4.907 1.75-8.412s-4.91-9.989-5.79-13.322c-.88-3.334.35-2.455 2.28-4.032s7.02-8.237 8.42-6.312 3.16 9.817 6.67 10.691c3.5.875 2.1 2.631 5.79 5.082 3.68 2.452 5.78 2.803 9.99 3.33s4.39.351 7.19 2.455c2.81 2.104 5.09 1.05 6.84-.702 1.76-1.753-2.45-8.412-2.98-10.692-.52-2.279 0-2.279 1.58-4.208 1.58-1.928-5.26-5.433-4.73-9.641.52-4.208 1.05-3.681 4.21-2.803s5.96 2.979 9.65.527c3.68-2.455 1.4-5.258 4.73-5.785 3.33-.526 10.7 4.208 13.33 1.753 2.64-2.455-.87-4.906 4.22-4.208 5.09.699 5.96 2.455 6.14.176.17-2.28-3.51-15.251-1.23-16.828s5.26 4.208 6.66 1.577c1.41-2.631-2.8-5.433-.87-6.835 1.92-1.401 4.38-1.401 1.75-5.257-2.63-3.857-3.33-9.115-2.11-9.817 1.23-.703 14.04 4.73 19.65 2.802s4.04-2.279 7.89-2.104c3.86.176 16.32 4.208 24.74 9.642s7.19 4.906 10.87 11.569c3.69 6.663 10.88 10.34 12.46 16.652 1.57 6.312 2.63 4.208 2.8 12.971s-.7 7.362 1.93 10.516 6.67 6.659 6.67 10.34.7 4.731 3.15 7.538c2.45 2.806 5.44 2.978 9.47 7.537 4.04 4.555 4.92 4.907 8.25 7.713s5.79 4.555 4.56 8.065c-1.23 3.505-1.23 4.906-6.67 4.207s-9.82-3.856-10.87-1.225.17 9.641 1.93 13.322c1.75 3.681 3.5 5.609 4.55 8.412 1.06 2.803 1.93-.527 3.16 3.856 1.23 4.384 1.93 8.588 3.51 12.62s1.93 4.555 4.73 7.713c2.81 3.154 4.39 2.803 3.86 5.434-.52 2.631-2.98 1.928-2.45 10.867.52 8.939 4.03 17.526 3.68 21.207s-1.23 4.731-.18 10.692c1.06 5.96 3.51 9.817 3.86 14.899.36 5.082 2.46 4.906 1.41 11.043-1.06 6.136-1.93 8.236-2.28 10.691-.36 2.455-2.11 2.978-1.41 8.587.71 5.61 2.98 6.312 4.04 15.075 1.05 8.763 1.93 13.323 2.98 17.878s3.86 4.032 2.46 6.483c-1.41 2.452-10.18.527-10.35 5.61-.18 5.082 2.98 6.659 2.1 9.641-.88 2.978-6.66 6.136-6.66 8.939s1.93 6.483 2.63 8.763-1.22 3.857-2.98 5.258c-1.75 1.401-6.49 6.659-6.14.527s-.53-14.899-1.75-15.774c-1.23-.874-4.91-.351-6.84.351-1.93.703-3.69-.175-4.74 0-1.05.176-2.63-.175-1.75 4.033s2.1 9.114 1.93 12.092c-.18 2.979.35 2.979-.53 5.785s-3.33-.527-2.81 4.907c.53 5.433-.17 11.394 4.04 16.652s5.97 2.802 5.97 7.186c0 4.383.52 2.455 0 6.136-.53 3.681 0 2.104-1.23 5.785s-.53 4.555-2.46 5.96-4.39 1.402-5.79 1.753-4.56-3.154-6.31-1.226c-1.76 1.929-9.13 8.237-11.06-.351-1.93-8.587-6.14-16.652-7.19-15.426-1.05 1.225-1.4 7.186-2.98 10.691s-6.14 2.978-6.84 4.208-7.54 3.33-9.3-2.978c-1.75-6.312-3.33-7.538-6.66-9.642s-2.46-1.752-5.79-.527-6.66-2.455-8.24-7.537 1.05-8.588-2.46-7.011-6.49 6.137-7.89 2.104c-1.41-4.032-2.64-4.906-2.99-2.978-.34 1.928-5.26 12.795-4.55 15.426.7 2.631.35 2.456-2.11 4.033s-5.96 4.207-6.66 5.433-11.76-6.659-16.85-9.29c-5.08-2.631-11.22-1.753-12.8-.878s-3.86-.879-5.79-1.402-8.07 2.104-13.51-2.63c-5.44-4.735-7.19-5.434-9.82-3.857-2.64 1.577-5.79 1.401-8.07 4.731-2.29 3.329-2.64 8.064-5.27 3.154-2.63-4.907-1.22-5.434-5.26-6.484-4.03-1.05-3.68-5.785.71-8.763 4.38-2.978 7.19-2.803 8.94-5.433 1.76-2.631-1.05-10.516 2.98-11.219s8.24 2.104 7.9-4.032c-.35-6.136-7.9-17.003-7.9-20.684s-1.75-5.785-6.32-5.785c-4.56 0-5.43-.176-7.19 2.803-1.75 2.978-10.7 12.619-11.4 10.34s.53-7.011-.53-9.817c-1.05-2.803-1.93-4.731 2.64-5.609 4.56-.879 6.31-8.588 9.99-7.187 3.68 1.402 9.65-6.311 4.21-8.236-5.43-1.924-5.43 6.659-10.87.176-5.44-6.484-8.95-18.58-11.58-15.774-2.63 2.803-10.35 10.692-12.63 11.219s-5.97-1.929-7.54-.879c-1.58 1.05-4.21 7.011-5.44 9.642s-7.19-4.032-8.24-2.631c-1.06 1.401-2.29 6.483-7.9 9.466-5.61 2.978-12.63-1.402-17.89 2.104-5.26 3.505-5.09 5.96-10.88 2.103s-12.8-5.784-18.24-4.73-5.44 1.225-8.59-3.33c-3.16-4.555-3.86-12.093-9.3-9.466s-5.79 4.731-11.58 8.065-9.82 3.681-14.21 7.713c-4.38 4.032-5.96 8.236-6.84 10.515s-7.89 0-9.12 2.979-.18 8.939-1.93 9.29-4.73-2.28-5.09 1.401c-.35 3.681.36 4.907-2.98 5.609-3.33.703-6.14-.175-12.1 4.033-5.96 4.207-11.93 2.802-19.12 4.383s-11.92-2.803-14.56 1.577c-2.63 4.384-5.79 10.34-5.43 14.372.35 4.033 2.8 2.631.35 7.538-2.46 4.906-3.69 8.939-5.97 6.659-2.28-2.279-4.21-2.455-6.14-1.05s-2.8 7.713-6.32 9.29c-3.51 1.577-2.1-.878-7.01 2.978s-15.44 4.384-15.61 8.588c-.18 4.208 4.21 8.236 2.98 11.57s-3.86 3.856-6.14 4.555-4.39 1.05-5.26 2.803c-.88 1.752-7.2 3.505-10 3.153-2.81-.351-5.26 1.577-6.32 2.803-1.05 1.226-4.38-2.803-5.26-4.555-.87-1.753-6.14 2.104-7.72 3.681s-8.59 4.731-13.679 6.659c-5.086 1.928-6.84 1.401-9.997-.527s-4.734-.351-8.071-.176c-3.336.176-9.649 1.929-9.649-.702s-.879-4.032-1.754-4.384c-.875-.351-4.211.878-2.98-2.455 1.23-3.334 1.051-5.082-2.633-7.713s-3.508-6.136-8.071-7.186-11.051-4.032-12.278-1.929c-1.227 2.104-2.981 6.312-5.614 6.312s-9.121-3.856-16.137-3.856-9.473 1.577-13.856-.176-2.458-1.753-9.298-1.401-11.926 1.401-15.087 0-3.508-3.506-8.07-6.66c-4.563-3.153-7.192-4.207-10.876-3.329s-1.402 2.631-7.368 1.401c-5.965-1.229-11.926-5.433-15.438-5.96s-4.91 1.577-5.262 2.104-1.93 2.455-5.438 2.978c0 0-5.438.176-7.543 2.978s-6.317 2.631-8.071 7.186c-1.754 4.556-.879 6.835-5.262 11.917-4.387 5.083-4.387 2.456-8.946 7.362s-3.156 3.154-5.965 8.939-2.805 7.362-4.91 8.236.879-3.505-4.387 1.226c-5.262 4.731-4.735 5.609-5.614 13.322s2.106 8.939-.527 10.867-15.786-6.483-16.314-14.372c-.527-7.889 5.086-11.745 6.141-15.598s-.176-6.136 1.051-10.34 1.051-7.889-.703-11.917c-1.754-4.029-2.981-3.681-2.282-7.362.704-3.681-8.77-8.236-13.156-8.763s-5.79.527-7.192 2.279c-1.403 1.753-4.036 1.577-7.192 2.979-3.157 1.401-.703.351-7.192 4.208-6.489 3.856-10.524 3.505-13.856 3.329s-3.684 1.226-3.86 3.33-2.98 6.136-5.262 2.802-1.93-7.361-4.035-2.978c-2.106 4.384-5.614 6.136-9.298 7.186-3.683 1.05-3.156-3.505-7.367-2.104-4.211 1.402-6.489.879-9.122 1.929s-2.633.702-4.387-1.226-1.051-3.33-4.559-1.05-1.754 3.33-6.664 2.28-4.735-2.28-7.192-.879c-2.457 1.402-14.735 2.104-16.489-.878-1.754-2.978-1.227-6.136-4.387-7.186s-3.156-.703-5.614-2.104-7.016-7.011-11.051-7.011-2.633 1.929-5.614-2.279-6.141-5.961-7.367-4.555c-1.227 1.405-7.544 5.082-9.298 7.888s-3.859-1.05-2.105 3.681-2.282 7.713-6.317 4.907-.176-4.032-3.508-4.032-9.122-1.226-10.172-2.28-.704-4.555-1.403-7.713c-.703-3.154-1.226-7.362-3.332-5.785s-5.086 2.631-5.086 7.538c0 4.906 4.387 12.619.176 13.322-4.212.702-9.649-2.455-9.298-4.384.352-1.928-3.332-6.311-4.91-11.042s-2.457-7.714-4.559-8.237-6.665-2.802-8.243-2.978-3.508-1.226-5.613-3.505-4.559-4.731-7.368-5.434c-2.809-.702-6.84-.878-9.649.176s-2.633 2.104-7.719 2.28-6.489-5.785-9.298-4.731c-2.808 1.054-5.086 1.752-4.386-3.154.703-4.907 8.07-14.724 4.035-20.157-4.035-5.434-6.665-5.961-8.419-4.384s-.351 3.154-5.086 5.082c-4.734 1.929-10.7 4.032-13.333 2.104s-7.895 0-8.594-1.928-.703-10.692-5.965-10.867-12.102.351-12.981-1.577-2.805.351-1.93-4.032c.879-4.384-2.281-7.011-4.91-8.065s-8.595-2.978-9.474-1.752c-.879 1.225-5.965 2.455-5.965 1.401s3.86-5.434 1.578-8.939-5.262-2.631-3.156-5.433 3.86-3.154 4.035-5.785-1.402-.703.176-4.384 3.684-3.154 1.578-4.906c-2.105-1.753-19.821-7.186-21.575-5.258s-10.7 4.208-14.032 4.731-4.035 3.329-6.317 4.032-11.403-7.362-16.137-16.652c-4.735-9.29-8.595-10.516-9.122-12.62s3.684-3.856-1.578-5.433-27.013-7.011-33.678-12.796-8.77-7.361-9.122-8.938c-.351-1.577-2.281-2.979-3.332-4.033-1.051-1.053-2.98-7.713-11.051-10.515s-15.962-4.208-18.068-6.66c-2.105-2.451-2.804-2.279-2.633-3.856.172-1.577.879-3.154-1.929-7.713-2.805-4.555-2.633-3.33-2.805-7.011s3.508-5.082-1.754-4.906c-5.262.175-16.314.527-25.435-2.803-9.122-3.33-10.7-3.681-11.927-3.33-1.226.352-1.226 1.577-2.98 2.803s-3.157 2.631-4.211.878-1.051-5.433-4.387-3.681c-3.337 1.753-4.212 2.803-4.559 4.731-.348 1.929 1.578 3.506.879 6.835s-.879 3.681-2.282 7.186c-1.402 3.506.879 4.907-3.332 6.137s-3.156 2.103-4.035 4.73c-.879 2.631-.176 3.857-3.684 3.33s-7.368-1.577-8.594-5.082c-1.227-3.505 1.929-2.28-1.579-7.362s-1.754-7.537-5.613-7.713-12.63-.703-13.856-2.631c-1.227-1.928-1.93-8.236-6.841-10.34-4.91-2.104-7.191-1.928-9.996-3.505s-.879 2.631-8.071-1.753-7.895-4.208-11.926-6.312-8.419.703-8.071-2.104c.351-2.802 5.613-13.146 2.98-14.899s-12.278-1.577-20.173-10.164-14.559-11.219-17.715-9.115-8.77 3.857-16.314-1.753c-7.543-5.609-8.242-9.465-11.754-10.34-3.512-.874-2.633-.351-3.86-3.856s-.879-5.961-3.508-8.939-2.106-.351-3.684-5.082-.703-4.384-2.633-5.434-6.84-5.96-10.7-1.225-6.84 8.411-10.524 9.465-9.297-.175-8.07-5.433c1.226-5.258 2.805-5.082.351-9.115-2.453-4.032-2.98-6.483.176-8.938s5.79-5.961 2.281-9.642-7.191-4.032-6.14-9.29c1.05-5.258 5.437-12.795 2.457-17.526s-2.981-3.505-6.317-9.989S5.933 368.018 5.23 361.53c-.703-6.483-2.282-15.598-3.157-18.404-.879-2.803 1.579-6.835 5.966-8.412s7.719.175 10.524-3.154c2.805-3.33 5.789-4.384 6.488-2.104.7 2.279-1.578 10.867 1.754 15.774s4.91 4.73 9.473 8.587 5.087 4.032 6.84 2.28c1.755-1.753 5.79-1.05 8.071-2.104 2.282-1.054.88-5.61 3.333-8.237s5.965-3.153 9.996-1.576 2.805 5.609 5.087 0c2.28-5.61 2.457-8.939 8.07-8.939s9.122-6.312 7.544-13.323c-1.578-7.01-7.368-7.361-9.473-13.498s-6.49-8.411-5.438-11.745c1.05-3.329 2.804-11.043.527-11.218s-12.454.702-16.49-2.104-4.91-2.803-6.14-6.659c-1.23-3.857-2.282-4.033-5.262-7.011s-5.614-7.889-4.035-12.795c1.578-4.907-1.755-7.186-.88-9.29.876-2.104 12.982 1.577 11.404-2.979-1.579-4.555-5.263-7.361-6.665-14.372-1.402-7.01-6.317-16.652-6.317-16.652z" />
  <path fill="#000"
    d="M903.318 572.794h5.719v2.085h-8.391v-16.535h2.672zm20.956-14.45v16.535h-2.696v-7.424h-7.781v7.424h-2.672v-16.535h2.672v6.932h7.781v-6.932zm13.102 12.951h-6.985l-1.266 3.584h-2.859l6.094-16.278h3.07l6.071 16.278h-2.86zm-.751-2.061-2.742-7.729-2.742 7.729zm17.159 3.501q-.587 1.042-1.782 1.675-1.195.632-2.93.632c-1.156 0-2.132-.199-3.023-.597q-1.336-.597-2.133-1.675-.797-1.077-.914-2.482h2.859a2.93 2.93 0 0 0 .926 1.85q.809.773 2.168.773 1.22 0 1.887-.656.668-.655.668-1.686 0-.89-.492-1.464a3.45 3.45 0 0 0-1.219-.902 22 22 0 0 0-1.992-.749q-1.547-.492-2.52-.984a4.6 4.6 0 0 1-1.652-1.428q-.68-.937-.68-2.46 0-1.334.656-2.342.657-1.007 1.875-1.557 1.219-.55 2.813-.55 2.532 0 4.02 1.217t1.699 3.186h-2.883a2.8 2.8 0 0 0-.879-1.605q-.714-.667-1.957-.667-1.125 0-1.805.574-.68.573-.68 1.651 0 .843.469 1.393t1.184.867a25 25 0 0 0 1.957.738q1.57.49 2.567.995a4.65 4.65 0 0 1 1.687 1.464q.692.96.692 2.529 0 1.218-.586 2.26m13.125-1.44h-6.985l-1.266 3.584h-2.859l6.094-16.278h3.07l6.071 16.278h-2.86zm-.75-2.061-2.743-7.729-2.742 7.729z" />
  <path stroke="#FF9C0A" stroke-miterlimit="10" stroke-width="5"
    d="M933.019 592.842s0 18.912-13.025 22.62-23.444 1.113-29.399 12.238-7.442 20.767-18.605 23.362-11.908 8.529-29.399 8.901c-17.492.371-26.047-.743-26.42-8.901-.372-8.159-11.907-14.09-21.953-13.723s-21.953-2.223-27.164-6.303c-5.211-4.079-15.256 2.595-27.909 1.856-12.653-.738-19.722-.371-35.351 5.936-15.629 6.306-24.189.742-36.841-5.564-12.653-6.307-11.536-6.674-27.165-12.981s-38.327-21.139-59.539-20.025-18.232 6.674-34.233 5.935c-16.002-.738-13.771-3.708-20.84-.742-7.07 2.966-20.095 8.901-33.493-1.856s-32.002-11.867-42.42-8.53-11.536 2.223-20.84-2.966-17.491-5.192-27.164-14.832c-9.673-9.639-12.653-10.011-26.792-17.431s-11.535-10.382-21.953-14.832-23.816-7.416-35.351-19.654-24.561-14.09-38.327-21.51c-13.767-7.42-18.978-7.788-35.352-7.788s-16.75-2.223-24.564-6.302" />
  <path fill="#FF9C0A"
    d="m934.934 579.656 3.532 7.147 7.894 1.148-5.711 5.566 1.348 7.853-7.063-3.708-7.059 3.708 1.348-7.853-5.715-5.566 7.898-1.148zm-64.469 79.395a7.14 7.14 0 0 0 7.141-7.136 7.14 7.14 0 0 0-7.141-7.135 7.14 7.14 0 0 0-7.141 7.135 7.14 7.14 0 0 0 7.141 7.136m-54.984 8.205a7.14 7.14 0 0 0 7.141-7.135 7.14 7.14 0 0 0-7.141-7.135 7.14 7.14 0 0 0-7.141 7.135 7.14 7.14 0 0 0 7.141 7.135M219.68 497.657a7.14 7.14 0 0 0 7.141-7.135 7.14 7.14 0 0 0-7.141-7.136 7.14 7.14 0 0 0-7.141 7.136 7.14 7.14 0 0 0 7.141 7.135" />
  <path fill="#fff"
    d="M190.132 316.477s.917.919 5.5 0c4.583-.92 6.189-1.382 6.189-1.382s9.953-3.329 38.744-.919c10.74.897 25.906 3.677 25.906 3.677s-7.057 3.323-5.457 11.83 7.518 35.073 7.057 66.567-9.172 66.675-4.355 68.514c4.816 1.838 18.339-7.36 18.572-10.574.233-3.215-2.061-54.486-1.145-82.765.917-28.279 1.606-52.191 1.606-52.191s18.409-.908 30.332.474c11.922 1.381 20.568 2.975 23.773 1.365 3.206-1.61 9.628-4.596 14.673-9.198 5.044-4.602 3.666-7.588 1.605-6.435s-48.253 6.06-69.928 4.14c-43.414-3.851-60.978-10.803-71.755-10.575-10.778.229-20.4 11.956-22.695 14.714-2.294 2.758 1.378 2.758 1.378 2.758m562.996 0s.917.919 5.5 0c4.584-.92 6.189-1.382 6.189-1.382s9.953-3.329 38.745-.919c10.739.897 25.905 3.677 25.905 3.677s-7.056 3.323-5.456 11.83 7.517 35.073 7.056 66.567-9.172 66.675-4.355 68.514c4.816 1.838 18.339-7.36 18.572-10.574.233-3.215-2.061-54.486-1.144-82.765.916-28.279 1.605-52.191 1.605-52.191s18.41-.908 30.332.474c11.922 1.381 20.568 2.975 23.774 1.365s9.628-4.596 14.672-9.198 3.667-7.588 1.605-6.435-48.253 6.06-69.927 4.14c-43.41-3.851-60.978-10.803-71.751-10.575-10.772.229-20.405 11.956-22.694 14.714s1.378 2.758 1.378 2.758zm-378.403-4.836c.89-2.225 9.98-3.111 15.301-6.228 5.322-3.117 9.536-4.667 9.536-1.333 0 3.335-3.77 64.707-3.992 84.941s-.222 59.811-1.551 64.929-19.733 12.897-19.956 10.895 7.54-65.816 5.989-92.278-4.877-51.364-5.322-55.144c-.444-3.78 0-5.782 0-5.782zm207.559 93.665c-1.594-43.525-60.527-55.905-68.094-58.298s-5.522-3.786-5.522-3.786c.152-2.132 1.671-.914 16.723-9.606s19.006-18.603 13.229-25.918c-5.777-7.316-57.924-8.388-72.976-8.236-15.052.153-22.803.305-24.783 2.747-1.974 2.437-10.794 5.184-10.186 7.164 0 0 .173 1.278 3.281 1.278s7.936-1.387 8.283 3.982 3.276 42.22 4.312 65.582-.173 58.141-2.934 64.369-20.536 11.422-15.839 15.834c2.994 2.812 10.355-.397 23.096 0s47.787 7.587 61.721 7.587c13.935 0 71.279-19.168 69.684-62.693zm-123.653-93.79s51.073-7.958 57.978 5.885c6.9 13.843-26.057 24.227-38.137 27.338-12.079 3.117-18.637 2.943-18.637 2.943s-1.21-21.632-1.21-28.203v-7.958zm97.075 120.655c-8.109 16.612-24.598 31.788-58.765 27.289-34.166-4.498-42.623-8.654-42.623-9.17 0-.517 9.319-2.078 10.008-6.054.689-3.982-3.276-39.278-3.971-59.697-.688-20.419.174-27.86.174-27.86s45.725-5.189 76.095 15.224c30.37 20.42 27.191 43.656 19.077 60.268zm53.227-122.39c-.558-1.545 12.476-8.295 18.79-7.593 6.313.701 28.601 5.058 54.257 4.922s42.482-7.593 43.464-6.184-2.105 11.248-14.298 13.777c-12.194 2.53-46.968.425-59.584-.282-12.617-.708-16.826-.702-16.826-.702v27.838s27.197 5.483 60.566 4.216c33.369-1.268 56.362-6.75 57.203-5.483.84 1.267-8.131 10.547-12.758 12.374-4.627 1.828-27.338 1.268-58.32-.141-30.983-1.409-46.268 2.111-46.268 2.111s-.282 39.647 1.123 55.812c1.405 16.166 2.381 36.411 2.381 36.411s25.233 7.169 61.407 6.751c36.173-.419 60.142-7.311 61.265-5.483 1.123 1.827-2.381 3.796-6.872 9.562-4.492 5.766-11.635 7.028-18.648 6.043-7.014-.984-52.012-3.231-77.81-2.388-25.797.843-42.058 1.828-43.463-.701s7.29-20.67 6.449-42.879c-.84-22.208-.699-51.88-1.822-70.575s-5.891-33.74-5.891-33.74l-4.345-3.655z" />
</svg>